<?xml version="1.0" encoding="utf-8"?><svg width="auto" height="6170" style="overflow:visible " version="1.1" xmlns="http://www.w3.org/2000/svg"><rect x="20" y="20" width="200" height="40" style="fill:white;stroke:black;stroke-width:1" /><text x="30" y="30" font-size="10" style="fill:blue">persona</text><text x="30" y="40" font-size="8" style="fill:black">nombre: Lara</text><text x="30" y="50" font-size="8" style="fill:black">apellidos: Fernández Méndez</text><text x="30" y="60" font-size="8" style="fill:black">fechaNacimiento: 2001-06-13</text><text x="30" y="70" font-size="8" style="fill:black">fotografia: multimedia/fotografia.jpg</text><text x="30" y="80" font-size="8" style="fill:black">comentario: Estudia ingenieria</text><rect x="240" y="20" width="200" height="40" style="fill:white;stroke:black;stroke-width:1" /><text x="250" y="30" font-size="10" style="fill:blue">lugarNacimiento</text><path d="M220 40 C240 40 220 40 240 40" style="fill:transparent;stroke:black" /><rect x="460" y="20" width="200" height="40" style="fill:white;stroke:black;stroke-width:1" /><text x="470" y="30" font-size="10" style="fill:blue">lugar</text><path d="M440 40 C460 40 440 40 460 40" style="fill:transparent;stroke:black" /><text x="470" y="40" font-size="8" style="fill:black">longitud: 43.5322</text><text x="470" y="50" font-size="8" style="fill:black">latitud: -5.6611</text><text x="470" y="60" font-size="8" style="fill:black">altitud: 13</text><rect x="680" y="20" width="200" height="40" style="fill:white;stroke:black;stroke-width:1" /><text x="690" y="30" font-size="10" style="fill:blue">nombreLugar</text><path d="M660 40 C680 40 660 40 680 40" style="fill:transparent;stroke:black" /><rect x="746" y="20" width="137" height="40" style="fill:green;stroke:black;stroke-width:1" /><text x="756" y="30" font-size="8" style="fill:white"> Gijon </text><rect x="240" y="170" width="200" height="40" style="fill:white;stroke:black;stroke-width:1" /><text x="250" y="180" font-size="10" style="fill:blue">lugarResidencia</text><path d="M220 40 C240 40 220 190 240 190" style="fill:transparent;stroke:black" /><rect x="460" y="170" width="200" height="40" style="fill:white;stroke:black;stroke-width:1" /><text x="470" y="180" font-size="10" style="fill:blue">lugar</text><path d="M440 190 C460 190 440 190 460 190" style="fill:transparent;stroke:black" /><text x="470" y="190" font-size="8" style="fill:black">longitud: 42.57505</text><text x="470" y="200" font-size="8" style="fill:black">latitud: -8.13385</text><text x="470" y="210" font-size="8" style="fill:black">altitud: 6</text><rect x="680" y="170" width="200" height="40" style="fill:white;stroke:black;stroke-width:1" /><text x="690" y="180" font-size="10" style="fill:blue">nombreLugar</text><path d="M660 190 C680 190 660 190 680 190" style="fill:transparent;stroke:black" /><rect x="746" y="170" width="137" height="40" style="fill:green;stroke:black;stroke-width:1" /><text x="756" y="180" font-size="8" style="fill:white"> Galicia </text><rect x="240" y="320" width="200" height="40" style="fill:white;stroke:black;stroke-width:1" /><text x="250" y="330" font-size="10" style="fill:blue">videos</text><path d="M220 40 C240 40 220 340 240 340" style="fill:transparent;stroke:black" /><rect x="460" y="320" width="200" height="40" style="fill:white;stroke:black;stroke-width:1" /><text x="470" y="330" font-size="10" style="fill:blue">video</text><path d="M440 340 C460 340 440 340 460 340" style="fill:transparent;stroke:black" /><rect x="526" y="320" width="137" height="40" style="fill:green;stroke:black;stroke-width:1" /><text x="536" y="330" font-size="8" style="fill:white"> multimedia/waves.mp4 </text><rect x="460" y="370" width="200" height="40" style="fill:white;stroke:black;stroke-width:1" /><text x="470" y="380" font-size="10" style="fill:blue">video</text><path d="M440 340 C460 340 440 390 460 390" style="fill:transparent;stroke:black" /><rect x="526" y="370" width="137" height="40" style="fill:green;stroke:black;stroke-width:1" /><text x="536" y="380" font-size="8" style="fill:white"> multimedia/waves.mp4 </text><rect x="240" y="470" width="200" height="40" style="fill:white;stroke:black;stroke-width:1" /><text x="250" y="480" font-size="10" style="fill:blue">amigos</text><path d="M220 40 C240 40 220 490 240 490" style="fill:transparent;stroke:black" /><rect x="460" y="470" width="200" height="40" style="fill:white;stroke:black;stroke-width:1" /><text x="470" y="480" font-size="10" style="fill:blue">persona</text><path d="M440 490 C460 490 440 490 460 490" style="fill:transparent;stroke:black" /><text x="470" y="490" font-size="8" style="fill:black">nombre: Laura</text><text x="470" y="500" font-size="8" style="fill:black">apellidos: Cordero Castrillo</text><text x="470" y="510" font-size="8" style="fill:black">fechaNacimiento: 2002-01-16</text><text x="470" y="520" font-size="8" style="fill:black">fotografia: multimedia/fotografia1.jpg</text><text x="470" y="530" font-size="8" style="fill:black">comentario: Le gusta leer</text><rect x="680" y="470" width="200" height="40" style="fill:white;stroke:black;stroke-width:1" /><text x="690" y="480" font-size="10" style="fill:blue">lugarNacimiento</text><path d="M660 490 C680 490 660 490 680 490" style="fill:transparent;stroke:black" /><rect x="900" y="470" width="200" height="40" style="fill:white;stroke:black;stroke-width:1" /><text x="910" y="480" font-size="10" style="fill:blue">lugar</text><path d="M880 490 C900 490 880 490 900 490" style="fill:transparent;stroke:black" /><text x="910" y="490" font-size="8" style="fill:black">longitud: 43.55795</text><text x="910" y="500" font-size="8" style="fill:black">latitud: -5.92466</text><text x="910" y="510" font-size="8" style="fill:black">altitud: 13</text><rect x="1120" y="470" width="200" height="40" style="fill:white;stroke:black;stroke-width:1" /><text x="1130" y="480" font-size="10" style="fill:blue">nombreLugar</text><path d="M1100 490 C1120 490 1100 490 1120 490" style="fill:transparent;stroke:black" /><rect x="1186" y="470" width="137" height="40" style="fill:green;stroke:black;stroke-width:1" /><text x="1196" y="480" font-size="8" style="fill:white"> Avilés </text><rect x="680" y="620" width="200" height="40" style="fill:white;stroke:black;stroke-width:1" /><text x="690" y="630" font-size="10" style="fill:blue">lugarResidencia</text><path d="M660 490 C680 490 660 640 680 640" style="fill:transparent;stroke:black" /><rect x="900" y="620" width="200" height="40" style="fill:white;stroke:black;stroke-width:1" /><text x="910" y="630" font-size="10" style="fill:blue">lugar</text><path d="M880 640 C900 640 880 640 900 640" style="fill:transparent;stroke:black" /><text x="910" y="640" font-size="8" style="fill:black">longitud: 43.5322</text><text x="910" y="650" font-size="8" style="fill:black">latitud: -5.6611</text><text x="910" y="660" font-size="8" style="fill:black">altitud: 13</text><rect x="1120" y="620" width="200" height="40" style="fill:white;stroke:black;stroke-width:1" /><text x="1130" y="630" font-size="10" style="fill:blue">nombreLugar</text><path d="M1100 640 C1120 640 1100 640 1120 640" style="fill:transparent;stroke:black" /><rect x="1186" y="620" width="137" height="40" style="fill:green;stroke:black;stroke-width:1" /><text x="1196" y="630" font-size="8" style="fill:white"> Gijon </text><rect x="680" y="770" width="200" height="40" style="fill:white;stroke:black;stroke-width:1" /><text x="690" y="780" font-size="10" style="fill:blue">videos</text><path d="M660 490 C680 490 660 790 680 790" style="fill:transparent;stroke:black" /><rect x="680" y="820" width="200" height="40" style="fill:white;stroke:black;stroke-width:1" /><text x="690" y="830" font-size="10" style="fill:blue">amigos</text><path d="M660 490 C680 490 660 840 680 840" style="fill:transparent;stroke:black" /><rect x="900" y="820" width="200" height="40" style="fill:white;stroke:black;stroke-width:1" /><text x="910" y="830" font-size="10" style="fill:blue">persona</text><path d="M880 840 C900 840 880 840 900 840" style="fill:transparent;stroke:black" /><text x="910" y="840" font-size="8" style="fill:black">nombre: Hector</text><text x="910" y="850" font-size="8" style="fill:black">apellidos: Lavandeira Fernández</text><text x="910" y="860" font-size="8" style="fill:black">fechaNacimiento: 2008-01-12</text><text x="910" y="870" font-size="8" style="fill:black">fotografia: multimedia/fotografia10.jpg</text><text x="910" y="880" font-size="8" style="fill:black">comentario: Le gusta ver series</text><rect x="1120" y="820" width="200" height="40" style="fill:white;stroke:black;stroke-width:1" /><text x="1130" y="830" font-size="10" style="fill:blue">lugarNacimiento</text><path d="M1100 840 C1120 840 1100 840 1120 840" style="fill:transparent;stroke:black" /><rect x="1340" y="820" width="200" height="40" style="fill:white;stroke:black;stroke-width:1" /><text x="1350" y="830" font-size="10" style="fill:blue">lugar</text><path d="M1320 840 C1340 840 1320 840 1340 840" style="fill:transparent;stroke:black" /><text x="1350" y="840" font-size="8" style="fill:black">longitud: 43.36225</text><text x="1350" y="850" font-size="8" style="fill:black">latitud: -5.84854</text><text x="1350" y="860" font-size="8" style="fill:black">altitud: 13</text><rect x="1560" y="820" width="200" height="40" style="fill:white;stroke:black;stroke-width:1" /><text x="1570" y="830" font-size="10" style="fill:blue">nombreLugar</text><path d="M1540 840 C1560 840 1540 840 1560 840" style="fill:transparent;stroke:black" /><rect x="1626" y="820" width="137" height="40" style="fill:green;stroke:black;stroke-width:1" /><text x="1636" y="830" font-size="8" style="fill:white"> Oviedo </text><rect x="1120" y="970" width="200" height="40" style="fill:white;stroke:black;stroke-width:1" /><text x="1130" y="980" font-size="10" style="fill:blue">lugarResidencia</text><path d="M1100 840 C1120 840 1100 990 1120 990" style="fill:transparent;stroke:black" /><rect x="1340" y="970" width="200" height="40" style="fill:white;stroke:black;stroke-width:1" /><text x="1350" y="980" font-size="10" style="fill:blue">lugar</text><path d="M1320 990 C1340 990 1320 990 1340 990" style="fill:transparent;stroke:black" /><text x="1350" y="990" font-size="8" style="fill:black">longitud: 42.57505</text><text x="1350" y="1000" font-size="8" style="fill:black">latitud: -8.13385</text><text x="1350" y="1010" font-size="8" style="fill:black">altitud: 6</text><rect x="1560" y="970" width="200" height="40" style="fill:white;stroke:black;stroke-width:1" /><text x="1570" y="980" font-size="10" style="fill:blue">nombreLugar</text><path d="M1540 990 C1560 990 1540 990 1560 990" style="fill:transparent;stroke:black" /><rect x="1626" y="970" width="137" height="40" style="fill:green;stroke:black;stroke-width:1" /><text x="1636" y="980" font-size="8" style="fill:white"> Galicia </text><rect x="1120" y="1120" width="200" height="40" style="fill:white;stroke:black;stroke-width:1" /><text x="1130" y="1130" font-size="10" style="fill:blue">videos</text><path d="M1100 840 C1120 840 1100 1140 1120 1140" style="fill:transparent;stroke:black" /><rect x="1340" y="1120" width="200" height="40" style="fill:white;stroke:black;stroke-width:1" /><text x="1350" y="1130" font-size="10" style="fill:blue">video</text><path d="M1320 1140 C1340 1140 1320 1140 1340 1140" style="fill:transparent;stroke:black" /><rect x="1406" y="1120" width="137" height="40" style="fill:green;stroke:black;stroke-width:1" /><text x="1416" y="1130" font-size="8" style="fill:white"> multimedia/waves.mp4 </text><rect x="1340" y="1170" width="200" height="40" style="fill:white;stroke:black;stroke-width:1" /><text x="1350" y="1180" font-size="10" style="fill:blue">video</text><path d="M1320 1140 C1340 1140 1320 1190 1340 1190" style="fill:transparent;stroke:black" /><rect x="1406" y="1170" width="137" height="40" style="fill:green;stroke:black;stroke-width:1" /><text x="1416" y="1180" font-size="8" style="fill:white"> multimedia/waves.mp4 </text><rect x="1340" y="1220" width="200" height="40" style="fill:white;stroke:black;stroke-width:1" /><text x="1350" y="1230" font-size="10" style="fill:blue">video</text><path d="M1320 1140 C1340 1140 1320 1240 1340 1240" style="fill:transparent;stroke:black" /><rect x="1406" y="1220" width="137" height="40" style="fill:green;stroke:black;stroke-width:1" /><text x="1416" y="1230" font-size="8" style="fill:white"> multimedia/waves.mp4 </text><rect x="1120" y="1320" width="200" height="40" style="fill:white;stroke:black;stroke-width:1" /><text x="1130" y="1330" font-size="10" style="fill:blue">amigos</text><path d="M1100 840 C1120 840 1100 1340 1120 1340" style="fill:transparent;stroke:black" /><rect x="900" y="1420" width="200" height="40" style="fill:white;stroke:black;stroke-width:1" /><text x="910" y="1430" font-size="10" style="fill:blue">persona</text><path d="M880 840 C900 840 880 1440 900 1440" style="fill:transparent;stroke:black" /><text x="910" y="1440" font-size="8" style="fill:black">nombre: Sonia</text><text x="910" y="1450" font-size="8" style="fill:black">apellidos: Fernández Coto</text><text x="910" y="1460" font-size="8" style="fill:black">fechaNacimiento: 2000-01-12</text><text x="910" y="1470" font-size="8" style="fill:black">fotografia: multimedia/fotografia2.jpg</text><text x="910" y="1480" font-size="8" style="fill:black">comentario: Le gusta ver peliculas</text><rect x="1120" y="1420" width="200" height="40" style="fill:white;stroke:black;stroke-width:1" /><text x="1130" y="1430" font-size="10" style="fill:blue">lugarNacimiento</text><path d="M1100 1440 C1120 1440 1100 1440 1120 1440" style="fill:transparent;stroke:black" /><rect x="1340" y="1420" width="200" height="40" style="fill:white;stroke:black;stroke-width:1" /><text x="1350" y="1430" font-size="10" style="fill:blue">lugar</text><path d="M1320 1440 C1340 1440 1320 1440 1340 1440" style="fill:transparent;stroke:black" /><text x="1350" y="1440" font-size="8" style="fill:black">longitud: 43.36225</text><text x="1350" y="1450" font-size="8" style="fill:black">latitud: -5.84854</text><text x="1350" y="1460" font-size="8" style="fill:black">altitud: 13</text><rect x="1560" y="1420" width="200" height="40" style="fill:white;stroke:black;stroke-width:1" /><text x="1570" y="1430" font-size="10" style="fill:blue">nombreLugar</text><path d="M1540 1440 C1560 1440 1540 1440 1560 1440" style="fill:transparent;stroke:black" /><rect x="1626" y="1420" width="137" height="40" style="fill:green;stroke:black;stroke-width:1" /><text x="1636" y="1430" font-size="8" style="fill:white"> Oviedo </text><rect x="1120" y="1570" width="200" height="40" style="fill:white;stroke:black;stroke-width:1" /><text x="1130" y="1580" font-size="10" style="fill:blue">lugarResidencia</text><path d="M1100 1440 C1120 1440 1100 1590 1120 1590" style="fill:transparent;stroke:black" /><rect x="1340" y="1570" width="200" height="40" style="fill:white;stroke:black;stroke-width:1" /><text x="1350" y="1580" font-size="10" style="fill:blue">lugar</text><path d="M1320 1590 C1340 1590 1320 1590 1340 1590" style="fill:transparent;stroke:black" /><text x="1350" y="1590" font-size="8" style="fill:black">longitud: 43.5322</text><text x="1350" y="1600" font-size="8" style="fill:black">latitud: -5.6611</text><text x="1350" y="1610" font-size="8" style="fill:black">altitud: 13</text><rect x="1560" y="1570" width="200" height="40" style="fill:white;stroke:black;stroke-width:1" /><text x="1570" y="1580" font-size="10" style="fill:blue">nombreLugar</text><path d="M1540 1590 C1560 1590 1540 1590 1560 1590" style="fill:transparent;stroke:black" /><rect x="1626" y="1570" width="137" height="40" style="fill:green;stroke:black;stroke-width:1" /><text x="1636" y="1580" font-size="8" style="fill:white"> Gijon </text><rect x="1120" y="1720" width="200" height="40" style="fill:white;stroke:black;stroke-width:1" /><text x="1130" y="1730" font-size="10" style="fill:blue">videos</text><path d="M1100 1440 C1120 1440 1100 1740 1120 1740" style="fill:transparent;stroke:black" /><rect x="1120" y="1770" width="200" height="40" style="fill:white;stroke:black;stroke-width:1" /><text x="1130" y="1780" font-size="10" style="fill:blue">amigos</text><path d="M1100 1440 C1120 1440 1100 1790 1120 1790" style="fill:transparent;stroke:black" /><rect x="900" y="1870" width="200" height="40" style="fill:white;stroke:black;stroke-width:1" /><text x="910" y="1880" font-size="10" style="fill:blue">persona</text><path d="M880 840 C900 840 880 1890 900 1890" style="fill:transparent;stroke:black" /><text x="910" y="1890" font-size="8" style="fill:black">nombre: Sara</text><text x="910" y="1900" font-size="8" style="fill:black">apellidos: Fernández González</text><text x="910" y="1910" font-size="8" style="fill:black">fechaNacimiento: 1992-03-11</text><text x="910" y="1920" font-size="8" style="fill:black">fotografia: multimedia/fotografia3.jpg</text><text x="910" y="1930" font-size="8" style="fill:black">comentario: Le gusta tejer</text><rect x="1120" y="1870" width="200" height="40" style="fill:white;stroke:black;stroke-width:1" /><text x="1130" y="1880" font-size="10" style="fill:blue">lugarNacimiento</text><path d="M1100 1890 C1120 1890 1100 1890 1120 1890" style="fill:transparent;stroke:black" /><rect x="1340" y="1870" width="200" height="40" style="fill:white;stroke:black;stroke-width:1" /><text x="1350" y="1880" font-size="10" style="fill:blue">lugar</text><path d="M1320 1890 C1340 1890 1320 1890 1340 1890" style="fill:transparent;stroke:black" /><text x="1350" y="1890" font-size="8" style="fill:black">longitud: 43.46363</text><text x="1350" y="1900" font-size="8" style="fill:black">latitud: -3.82264</text><text x="1350" y="1910" font-size="8" style="fill:black">altitud: 10</text><rect x="1560" y="1870" width="200" height="40" style="fill:white;stroke:black;stroke-width:1" /><text x="1570" y="1880" font-size="10" style="fill:blue">nombreLugar</text><path d="M1540 1890 C1560 1890 1540 1890 1560 1890" style="fill:transparent;stroke:black" /><rect x="1626" y="1870" width="137" height="40" style="fill:green;stroke:black;stroke-width:1" /><text x="1636" y="1880" font-size="8" style="fill:white"> Santander </text><rect x="1120" y="2020" width="200" height="40" style="fill:white;stroke:black;stroke-width:1" /><text x="1130" y="2030" font-size="10" style="fill:blue">lugarResidencia</text><path d="M1100 1890 C1120 1890 1100 2040 1120 2040" style="fill:transparent;stroke:black" /><rect x="1340" y="2020" width="200" height="40" style="fill:white;stroke:black;stroke-width:1" /><text x="1350" y="2030" font-size="10" style="fill:blue">lugar</text><path d="M1320 2040 C1340 2040 1320 2040 1340 2040" style="fill:transparent;stroke:black" /><text x="1350" y="2040" font-size="8" style="fill:black">longitud: 43.5322</text><text x="1350" y="2050" font-size="8" style="fill:black">latitud: -5.6611</text><text x="1350" y="2060" font-size="8" style="fill:black">altitud: 13</text><rect x="1560" y="2020" width="200" height="40" style="fill:white;stroke:black;stroke-width:1" /><text x="1570" y="2030" font-size="10" style="fill:blue">nombreLugar</text><path d="M1540 2040 C1560 2040 1540 2040 1560 2040" style="fill:transparent;stroke:black" /><rect x="1626" y="2020" width="137" height="40" style="fill:green;stroke:black;stroke-width:1" /><text x="1636" y="2030" font-size="8" style="fill:white"> Gijon </text><rect x="1120" y="2170" width="200" height="40" style="fill:white;stroke:black;stroke-width:1" /><text x="1130" y="2180" font-size="10" style="fill:blue">videos</text><path d="M1100 1890 C1120 1890 1100 2190 1120 2190" style="fill:transparent;stroke:black" /><rect x="1340" y="2170" width="200" height="40" style="fill:white;stroke:black;stroke-width:1" /><text x="1350" y="2180" font-size="10" style="fill:blue">video</text><path d="M1320 2190 C1340 2190 1320 2190 1340 2190" style="fill:transparent;stroke:black" /><rect x="1406" y="2170" width="137" height="40" style="fill:green;stroke:black;stroke-width:1" /><text x="1416" y="2180" font-size="8" style="fill:white"> multimedia/waves.mp4 </text><rect x="1120" y="2270" width="200" height="40" style="fill:white;stroke:black;stroke-width:1" /><text x="1130" y="2280" font-size="10" style="fill:blue">amigos</text><path d="M1100 1890 C1120 1890 1100 2290 1120 2290" style="fill:transparent;stroke:black" /><rect x="460" y="2470" width="200" height="40" style="fill:white;stroke:black;stroke-width:1" /><text x="470" y="2480" font-size="10" style="fill:blue">persona</text><path d="M440 490 C460 490 440 2490 460 2490" style="fill:transparent;stroke:black" /><text x="470" y="2490" font-size="8" style="fill:black">nombre: Rocío</text><text x="470" y="2500" font-size="8" style="fill:black">apellidos: Gayo Alaez</text><text x="470" y="2510" font-size="8" style="fill:black">fechaNacimiento: 2001-06-13</text><text x="470" y="2520" font-size="8" style="fill:black">fotografia: multimedia/fotoRo.jpg</text><text x="470" y="2530" font-size="8" style="fill:black">comentario: Estudia geología</text><rect x="680" y="2470" width="200" height="40" style="fill:white;stroke:black;stroke-width:1" /><text x="690" y="2480" font-size="10" style="fill:blue">lugarNacimiento</text><path d="M660 2490 C680 2490 660 2490 680 2490" style="fill:transparent;stroke:black" /><rect x="900" y="2470" width="200" height="40" style="fill:white;stroke:black;stroke-width:1" /><text x="910" y="2480" font-size="10" style="fill:blue">lugar</text><path d="M880 2490 C900 2490 880 2490 900 2490" style="fill:transparent;stroke:black" /><text x="910" y="2490" font-size="8" style="fill:black">longitud: 42.57505</text><text x="910" y="2500" font-size="8" style="fill:black">latitud: -8.13385</text><text x="910" y="2510" font-size="8" style="fill:black">altitud: 6</text><rect x="1120" y="2470" width="200" height="40" style="fill:white;stroke:black;stroke-width:1" /><text x="1130" y="2480" font-size="10" style="fill:blue">nombreLugar</text><path d="M1100 2490 C1120 2490 1100 2490 1120 2490" style="fill:transparent;stroke:black" /><rect x="1186" y="2470" width="137" height="40" style="fill:green;stroke:black;stroke-width:1" /><text x="1196" y="2480" font-size="8" style="fill:white"> Galicia </text><rect x="680" y="2620" width="200" height="40" style="fill:white;stroke:black;stroke-width:1" /><text x="690" y="2630" font-size="10" style="fill:blue">lugarResidencia</text><path d="M660 2490 C680 2490 660 2640 680 2640" style="fill:transparent;stroke:black" /><rect x="900" y="2620" width="200" height="40" style="fill:white;stroke:black;stroke-width:1" /><text x="910" y="2630" font-size="10" style="fill:blue">lugar</text><path d="M880 2640 C900 2640 880 2640 900 2640" style="fill:transparent;stroke:black" /><text x="910" y="2640" font-size="8" style="fill:black">longitud: 43.5322</text><text x="910" y="2650" font-size="8" style="fill:black">latitud: -5.6611</text><text x="910" y="2660" font-size="8" style="fill:black">altitud: 13</text><rect x="1120" y="2620" width="200" height="40" style="fill:white;stroke:black;stroke-width:1" /><text x="1130" y="2630" font-size="10" style="fill:blue">nombreLugar</text><path d="M1100 2640 C1120 2640 1100 2640 1120 2640" style="fill:transparent;stroke:black" /><rect x="1186" y="2620" width="137" height="40" style="fill:green;stroke:black;stroke-width:1" /><text x="1196" y="2630" font-size="8" style="fill:white"> Gijon </text><rect x="680" y="2770" width="200" height="40" style="fill:white;stroke:black;stroke-width:1" /><text x="690" y="2780" font-size="10" style="fill:blue">videos</text><path d="M660 2490 C680 2490 660 2790 680 2790" style="fill:transparent;stroke:black" /><rect x="680" y="2820" width="200" height="40" style="fill:white;stroke:black;stroke-width:1" /><text x="690" y="2830" font-size="10" style="fill:blue">amigos</text><path d="M660 2490 C680 2490 660 2840 680 2840" style="fill:transparent;stroke:black" /><rect x="900" y="2820" width="200" height="40" style="fill:white;stroke:black;stroke-width:1" /><text x="910" y="2830" font-size="10" style="fill:blue">persona</text><path d="M880 2840 C900 2840 880 2840 900 2840" style="fill:transparent;stroke:black" /><text x="910" y="2840" font-size="8" style="fill:black">nombre: Iker</text><text x="910" y="2850" font-size="8" style="fill:black">apellidos: Jiménez Herrero</text><text x="910" y="2860" font-size="8" style="fill:black">fechaNacimiento: 2011-09-22</text><text x="910" y="2870" font-size="8" style="fill:black">fotografia: multimedia/fotografia11.jpg</text><text x="910" y="2880" font-size="8" style="fill:black">comentario: Le gustan los mangas</text><rect x="1120" y="2820" width="200" height="40" style="fill:white;stroke:black;stroke-width:1" /><text x="1130" y="2830" font-size="10" style="fill:blue">lugarNacimiento</text><path d="M1100 2840 C1120 2840 1100 2840 1120 2840" style="fill:transparent;stroke:black" /><rect x="1340" y="2820" width="200" height="40" style="fill:white;stroke:black;stroke-width:1" /><text x="1350" y="2830" font-size="10" style="fill:blue">lugar</text><path d="M1320 2840 C1340 2840 1320 2840 1340 2840" style="fill:transparent;stroke:black" /><text x="1350" y="2840" font-size="8" style="fill:black">longitud: 41.38739</text><text x="1350" y="2850" font-size="8" style="fill:black">latitud: 2.16856</text><text x="1350" y="2860" font-size="8" style="fill:black">altitud: 6</text><rect x="1560" y="2820" width="200" height="40" style="fill:white;stroke:black;stroke-width:1" /><text x="1570" y="2830" font-size="10" style="fill:blue">nombreLugar</text><path d="M1540 2840 C1560 2840 1540 2840 1560 2840" style="fill:transparent;stroke:black" /><rect x="1626" y="2820" width="137" height="40" style="fill:green;stroke:black;stroke-width:1" /><text x="1636" y="2830" font-size="8" style="fill:white"> Barcelona </text><rect x="1120" y="2970" width="200" height="40" style="fill:white;stroke:black;stroke-width:1" /><text x="1130" y="2980" font-size="10" style="fill:blue">lugarResidencia</text><path d="M1100 2840 C1120 2840 1100 2990 1120 2990" style="fill:transparent;stroke:black" /><rect x="1340" y="2970" width="200" height="40" style="fill:white;stroke:black;stroke-width:1" /><text x="1350" y="2980" font-size="10" style="fill:blue">lugar</text><path d="M1320 2990 C1340 2990 1320 2990 1340 2990" style="fill:transparent;stroke:black" /><text x="1350" y="2990" font-size="8" style="fill:black">longitud: 43.30811</text><text x="1350" y="3000" font-size="8" style="fill:black">latitud: -5.69605</text><text x="1350" y="3010" font-size="8" style="fill:black">altitud: 13</text><rect x="1560" y="2970" width="200" height="40" style="fill:white;stroke:black;stroke-width:1" /><text x="1570" y="2980" font-size="10" style="fill:blue">nombreLugar</text><path d="M1540 2990 C1560 2990 1540 2990 1560 2990" style="fill:transparent;stroke:black" /><rect x="1626" y="2970" width="137" height="40" style="fill:green;stroke:black;stroke-width:1" /><text x="1636" y="2980" font-size="8" style="fill:white"> Langreo </text><rect x="1120" y="3120" width="200" height="40" style="fill:white;stroke:black;stroke-width:1" /><text x="1130" y="3130" font-size="10" style="fill:blue">videos</text><path d="M1100 2840 C1120 2840 1100 3140 1120 3140" style="fill:transparent;stroke:black" /><rect x="1120" y="3170" width="200" height="40" style="fill:white;stroke:black;stroke-width:1" /><text x="1130" y="3180" font-size="10" style="fill:blue">amigos</text><path d="M1100 2840 C1120 2840 1100 3190 1120 3190" style="fill:transparent;stroke:black" /><rect x="900" y="3270" width="200" height="40" style="fill:white;stroke:black;stroke-width:1" /><text x="910" y="3280" font-size="10" style="fill:blue">persona</text><path d="M880 2840 C900 2840 880 3290 900 3290" style="fill:transparent;stroke:black" /><text x="910" y="3290" font-size="8" style="fill:black">nombre: Jenni</text><text x="910" y="3300" font-size="8" style="fill:black">apellidos: Rodriguez Velasco</text><text x="910" y="3310" font-size="8" style="fill:black">fechaNacimiento: 2022-01-01</text><text x="910" y="3320" font-size="8" style="fill:black">fotografia: multimedia/fotografia5.jpg</text><text x="910" y="3330" font-size="8" style="fill:black">comentario: Viaja mucho</text><rect x="1120" y="3270" width="200" height="40" style="fill:white;stroke:black;stroke-width:1" /><text x="1130" y="3280" font-size="10" style="fill:blue">lugarNacimiento</text><path d="M1100 3290 C1120 3290 1100 3290 1120 3290" style="fill:transparent;stroke:black" /><rect x="1340" y="3270" width="200" height="40" style="fill:white;stroke:black;stroke-width:1" /><text x="1350" y="3280" font-size="10" style="fill:blue">lugar</text><path d="M1320 3290 C1340 3290 1320 3290 1340 3290" style="fill:transparent;stroke:black" /><text x="1350" y="3290" font-size="8" style="fill:black">longitud: 43.46363</text><text x="1350" y="3300" font-size="8" style="fill:black">latitud: -3.82264</text><text x="1350" y="3310" font-size="8" style="fill:black">altitud: 10</text><rect x="1560" y="3270" width="200" height="40" style="fill:white;stroke:black;stroke-width:1" /><text x="1570" y="3280" font-size="10" style="fill:blue">nombreLugar</text><path d="M1540 3290 C1560 3290 1540 3290 1560 3290" style="fill:transparent;stroke:black" /><rect x="1626" y="3270" width="137" height="40" style="fill:green;stroke:black;stroke-width:1" /><text x="1636" y="3280" font-size="8" style="fill:white"> Santander </text><rect x="1120" y="3420" width="200" height="40" style="fill:white;stroke:black;stroke-width:1" /><text x="1130" y="3430" font-size="10" style="fill:blue">lugarResidencia</text><path d="M1100 3290 C1120 3290 1100 3440 1120 3440" style="fill:transparent;stroke:black" /><rect x="1340" y="3420" width="200" height="40" style="fill:white;stroke:black;stroke-width:1" /><text x="1350" y="3430" font-size="10" style="fill:blue">lugar</text><path d="M1320 3440 C1340 3440 1320 3440 1340 3440" style="fill:transparent;stroke:black" /><text x="1350" y="3440" font-size="8" style="fill:black">longitud: 43.5322</text><text x="1350" y="3450" font-size="8" style="fill:black">latitud: -5.6611</text><text x="1350" y="3460" font-size="8" style="fill:black">altitud: 13</text><rect x="1560" y="3420" width="200" height="40" style="fill:white;stroke:black;stroke-width:1" /><text x="1570" y="3430" font-size="10" style="fill:blue">nombreLugar</text><path d="M1540 3440 C1560 3440 1540 3440 1560 3440" style="fill:transparent;stroke:black" /><rect x="1626" y="3420" width="137" height="40" style="fill:green;stroke:black;stroke-width:1" /><text x="1636" y="3430" font-size="8" style="fill:white"> Gijon </text><rect x="1120" y="3570" width="200" height="40" style="fill:white;stroke:black;stroke-width:1" /><text x="1130" y="3580" font-size="10" style="fill:blue">videos</text><path d="M1100 3290 C1120 3290 1100 3590 1120 3590" style="fill:transparent;stroke:black" /><rect x="1120" y="3620" width="200" height="40" style="fill:white;stroke:black;stroke-width:1" /><text x="1130" y="3630" font-size="10" style="fill:blue">amigos</text><path d="M1100 3290 C1120 3290 1100 3640 1120 3640" style="fill:transparent;stroke:black" /><rect x="900" y="3720" width="200" height="40" style="fill:white;stroke:black;stroke-width:1" /><text x="910" y="3730" font-size="10" style="fill:blue">persona</text><path d="M880 2840 C900 2840 880 3740 900 3740" style="fill:transparent;stroke:black" /><text x="910" y="3740" font-size="8" style="fill:black">nombre: Fer</text><text x="910" y="3750" font-size="8" style="fill:black">apellidos: González Sierra</text><text x="910" y="3760" font-size="8" style="fill:black">fechaNacimiento: 2012-12-12</text><text x="910" y="3770" font-size="8" style="fill:black">fotografia: multimedia/fotografia12.jpg</text><text x="910" y="3780" font-size="8" style="fill:black">comentario: Le gusta el anime</text><rect x="1120" y="3720" width="200" height="40" style="fill:white;stroke:black;stroke-width:1" /><text x="1130" y="3730" font-size="10" style="fill:blue">lugarNacimiento</text><path d="M1100 3740 C1120 3740 1100 3740 1120 3740" style="fill:transparent;stroke:black" /><rect x="1340" y="3720" width="200" height="40" style="fill:white;stroke:black;stroke-width:1" /><text x="1350" y="3730" font-size="10" style="fill:blue">lugar</text><path d="M1320 3740 C1340 3740 1320 3740 1340 3740" style="fill:transparent;stroke:black" /><text x="1350" y="3740" font-size="8" style="fill:black">longitud: 43.46363</text><text x="1350" y="3750" font-size="8" style="fill:black">latitud: -3.82264</text><text x="1350" y="3760" font-size="8" style="fill:black">altitud: 10</text><rect x="1560" y="3720" width="200" height="40" style="fill:white;stroke:black;stroke-width:1" /><text x="1570" y="3730" font-size="10" style="fill:blue">nombreLugar</text><path d="M1540 3740 C1560 3740 1540 3740 1560 3740" style="fill:transparent;stroke:black" /><rect x="1626" y="3720" width="137" height="40" style="fill:green;stroke:black;stroke-width:1" /><text x="1636" y="3730" font-size="8" style="fill:white"> Santander </text><rect x="1120" y="3870" width="200" height="40" style="fill:white;stroke:black;stroke-width:1" /><text x="1130" y="3880" font-size="10" style="fill:blue">lugarResidencia</text><path d="M1100 3740 C1120 3740 1100 3890 1120 3890" style="fill:transparent;stroke:black" /><rect x="1340" y="3870" width="200" height="40" style="fill:white;stroke:black;stroke-width:1" /><text x="1350" y="3880" font-size="10" style="fill:blue">lugar</text><path d="M1320 3890 C1340 3890 1320 3890 1340 3890" style="fill:transparent;stroke:black" /><text x="1350" y="3890" font-size="8" style="fill:black">longitud: 43.5322</text><text x="1350" y="3900" font-size="8" style="fill:black">latitud: -5.6611</text><text x="1350" y="3910" font-size="8" style="fill:black">altitud: 13</text><rect x="1560" y="3870" width="200" height="40" style="fill:white;stroke:black;stroke-width:1" /><text x="1570" y="3880" font-size="10" style="fill:blue">nombreLugar</text><path d="M1540 3890 C1560 3890 1540 3890 1560 3890" style="fill:transparent;stroke:black" /><rect x="1626" y="3870" width="137" height="40" style="fill:green;stroke:black;stroke-width:1" /><text x="1636" y="3880" font-size="8" style="fill:white"> Gijon </text><rect x="1120" y="4020" width="200" height="40" style="fill:white;stroke:black;stroke-width:1" /><text x="1130" y="4030" font-size="10" style="fill:blue">videos</text><path d="M1100 3740 C1120 3740 1100 4040 1120 4040" style="fill:transparent;stroke:black" /><rect x="1120" y="4070" width="200" height="40" style="fill:white;stroke:black;stroke-width:1" /><text x="1130" y="4080" font-size="10" style="fill:blue">amigos</text><path d="M1100 3740 C1120 3740 1100 4090 1120 4090" style="fill:transparent;stroke:black" /><rect x="460" y="4270" width="200" height="40" style="fill:white;stroke:black;stroke-width:1" /><text x="470" y="4280" font-size="10" style="fill:blue">persona</text><path d="M440 490 C460 490 440 4290 460 4290" style="fill:transparent;stroke:black" /><text x="470" y="4290" font-size="8" style="fill:black">nombre: Maite</text><text x="470" y="4300" font-size="8" style="fill:black">apellidos: Rodas Bentivoglio</text><text x="470" y="4310" font-size="8" style="fill:black">fechaNacimiento: 2001-06-10</text><text x="470" y="4320" font-size="8" style="fill:black">fotografia: multimedia/fotografia6.jpg</text><text x="470" y="4330" font-size="8" style="fill:black">comentario: En FP de enfermeria</text><rect x="680" y="4270" width="200" height="40" style="fill:white;stroke:black;stroke-width:1" /><text x="690" y="4280" font-size="10" style="fill:blue">lugarNacimiento</text><path d="M660 4290 C680 4290 660 4290 680 4290" style="fill:transparent;stroke:black" /><rect x="900" y="4270" width="200" height="40" style="fill:white;stroke:black;stroke-width:1" /><text x="910" y="4280" font-size="10" style="fill:blue">lugar</text><path d="M880 4290 C900 4290 880 4290 900 4290" style="fill:transparent;stroke:black" /><text x="910" y="4290" font-size="8" style="fill:black">longitud: 41.38739</text><text x="910" y="4300" font-size="8" style="fill:black">latitud: 2.16856</text><text x="910" y="4310" font-size="8" style="fill:black">altitud: 6</text><rect x="1120" y="4270" width="200" height="40" style="fill:white;stroke:black;stroke-width:1" /><text x="1130" y="4280" font-size="10" style="fill:blue">nombreLugar</text><path d="M1100 4290 C1120 4290 1100 4290 1120 4290" style="fill:transparent;stroke:black" /><rect x="1186" y="4270" width="137" height="40" style="fill:green;stroke:black;stroke-width:1" /><text x="1196" y="4280" font-size="8" style="fill:white"> Barcelona </text><rect x="680" y="4420" width="200" height="40" style="fill:white;stroke:black;stroke-width:1" /><text x="690" y="4430" font-size="10" style="fill:blue">lugarResidencia</text><path d="M660 4290 C680 4290 660 4440 680 4440" style="fill:transparent;stroke:black" /><rect x="900" y="4420" width="200" height="40" style="fill:white;stroke:black;stroke-width:1" /><text x="910" y="4430" font-size="10" style="fill:blue">lugar</text><path d="M880 4440 C900 4440 880 4440 900 4440" style="fill:transparent;stroke:black" /><text x="910" y="4440" font-size="8" style="fill:black">longitud: 43.30811</text><text x="910" y="4450" font-size="8" style="fill:black">latitud: -5.69605</text><text x="910" y="4460" font-size="8" style="fill:black">altitud: 13</text><rect x="1120" y="4420" width="200" height="40" style="fill:white;stroke:black;stroke-width:1" /><text x="1130" y="4430" font-size="10" style="fill:blue">nombreLugar</text><path d="M1100 4440 C1120 4440 1100 4440 1120 4440" style="fill:transparent;stroke:black" /><rect x="1186" y="4420" width="137" height="40" style="fill:green;stroke:black;stroke-width:1" /><text x="1196" y="4430" font-size="8" style="fill:white"> Langreo </text><rect x="680" y="4570" width="200" height="40" style="fill:white;stroke:black;stroke-width:1" /><text x="690" y="4580" font-size="10" style="fill:blue">videos</text><path d="M660 4290 C680 4290 660 4590 680 4590" style="fill:transparent;stroke:black" /><rect x="680" y="4620" width="200" height="40" style="fill:white;stroke:black;stroke-width:1" /><text x="690" y="4630" font-size="10" style="fill:blue">amigos</text><path d="M660 4290 C680 4290 660 4640 680 4640" style="fill:transparent;stroke:black" /><rect x="900" y="4620" width="200" height="40" style="fill:white;stroke:black;stroke-width:1" /><text x="910" y="4630" font-size="10" style="fill:blue">persona</text><path d="M880 4640 C900 4640 880 4640 900 4640" style="fill:transparent;stroke:black" /><text x="910" y="4640" font-size="8" style="fill:black">nombre: Nuria</text><text x="910" y="4650" font-size="8" style="fill:black">apellidos: Inchaurrandieta Fernández</text><text x="910" y="4660" font-size="8" style="fill:black">fechaNacimiento: 2004-04-22</text><text x="910" y="4670" font-size="8" style="fill:black">fotografia: multimedia/fotografia7.jpg</text><text x="910" y="4680" font-size="8" style="fill:black">comentario: Va al gimnasio</text><rect x="1120" y="4620" width="200" height="40" style="fill:white;stroke:black;stroke-width:1" /><text x="1130" y="4630" font-size="10" style="fill:blue">lugarNacimiento</text><path d="M1100 4640 C1120 4640 1100 4640 1120 4640" style="fill:transparent;stroke:black" /><rect x="1340" y="4620" width="200" height="40" style="fill:white;stroke:black;stroke-width:1" /><text x="1350" y="4630" font-size="10" style="fill:blue">lugar</text><path d="M1320 4640 C1340 4640 1320 4640 1340 4640" style="fill:transparent;stroke:black" /><text x="1350" y="4640" font-size="8" style="fill:black">longitud: 43.5322</text><text x="1350" y="4650" font-size="8" style="fill:black">latitud: -5.6611</text><text x="1350" y="4660" font-size="8" style="fill:black">altitud: 13</text><rect x="1560" y="4620" width="200" height="40" style="fill:white;stroke:black;stroke-width:1" /><text x="1570" y="4630" font-size="10" style="fill:blue">nombreLugar</text><path d="M1540 4640 C1560 4640 1540 4640 1560 4640" style="fill:transparent;stroke:black" /><rect x="1626" y="4620" width="137" height="40" style="fill:green;stroke:black;stroke-width:1" /><text x="1636" y="4630" font-size="8" style="fill:white"> Gijon </text><rect x="1120" y="4770" width="200" height="40" style="fill:white;stroke:black;stroke-width:1" /><text x="1130" y="4780" font-size="10" style="fill:blue">lugarResidencia</text><path d="M1100 4640 C1120 4640 1100 4790 1120 4790" style="fill:transparent;stroke:black" /><rect x="1340" y="4770" width="200" height="40" style="fill:white;stroke:black;stroke-width:1" /><text x="1350" y="4780" font-size="10" style="fill:blue">lugar</text><path d="M1320 4790 C1340 4790 1320 4790 1340 4790" style="fill:transparent;stroke:black" /><text x="1350" y="4790" font-size="8" style="fill:black">longitud: 41.38739</text><text x="1350" y="4800" font-size="8" style="fill:black">latitud: 2.16856</text><text x="1350" y="4810" font-size="8" style="fill:black">altitud: 6</text><rect x="1560" y="4770" width="200" height="40" style="fill:white;stroke:black;stroke-width:1" /><text x="1570" y="4780" font-size="10" style="fill:blue">nombreLugar</text><path d="M1540 4790 C1560 4790 1540 4790 1560 4790" style="fill:transparent;stroke:black" /><rect x="1626" y="4770" width="137" height="40" style="fill:green;stroke:black;stroke-width:1" /><text x="1636" y="4780" font-size="8" style="fill:white"> Barcelona </text><rect x="1120" y="4920" width="200" height="40" style="fill:white;stroke:black;stroke-width:1" /><text x="1130" y="4930" font-size="10" style="fill:blue">videos</text><path d="M1100 4640 C1120 4640 1100 4940 1120 4940" style="fill:transparent;stroke:black" /><rect x="1120" y="4970" width="200" height="40" style="fill:white;stroke:black;stroke-width:1" /><text x="1130" y="4980" font-size="10" style="fill:blue">amigos</text><path d="M1100 4640 C1120 4640 1100 4990 1120 4990" style="fill:transparent;stroke:black" /><rect x="900" y="5070" width="200" height="40" style="fill:white;stroke:black;stroke-width:1" /><text x="910" y="5080" font-size="10" style="fill:blue">persona</text><path d="M880 4640 C900 4640 880 5090 900 5090" style="fill:transparent;stroke:black" /><text x="910" y="5090" font-size="8" style="fill:black">nombre: Ana</text><text x="910" y="5100" font-size="8" style="fill:black">apellidos: Fernández Ostio</text><text x="910" y="5110" font-size="8" style="fill:black">fechaNacimiento: 1992-12-23</text><text x="910" y="5120" font-size="8" style="fill:black">fotografia: multimedia/fotografia8.jpg</text><text x="910" y="5130" font-size="8" style="fill:black">comentario: Ve twitch</text><rect x="1120" y="5070" width="200" height="40" style="fill:white;stroke:black;stroke-width:1" /><text x="1130" y="5080" font-size="10" style="fill:blue">lugarNacimiento</text><path d="M1100 5090 C1120 5090 1100 5090 1120 5090" style="fill:transparent;stroke:black" /><rect x="1340" y="5070" width="200" height="40" style="fill:white;stroke:black;stroke-width:1" /><text x="1350" y="5080" font-size="10" style="fill:blue">lugar</text><path d="M1320 5090 C1340 5090 1320 5090 1340 5090" style="fill:transparent;stroke:black" /><text x="1350" y="5090" font-size="8" style="fill:black">longitud: 43.30811</text><text x="1350" y="5100" font-size="8" style="fill:black">latitud: -5.69605</text><text x="1350" y="5110" font-size="8" style="fill:black">altitud: 13</text><rect x="1560" y="5070" width="200" height="40" style="fill:white;stroke:black;stroke-width:1" /><text x="1570" y="5080" font-size="10" style="fill:blue">nombreLugar</text><path d="M1540 5090 C1560 5090 1540 5090 1560 5090" style="fill:transparent;stroke:black" /><rect x="1626" y="5070" width="137" height="40" style="fill:green;stroke:black;stroke-width:1" /><text x="1636" y="5080" font-size="8" style="fill:white"> Langreo </text><rect x="1120" y="5220" width="200" height="40" style="fill:white;stroke:black;stroke-width:1" /><text x="1130" y="5230" font-size="10" style="fill:blue">lugarResidencia</text><path d="M1100 5090 C1120 5090 1100 5240 1120 5240" style="fill:transparent;stroke:black" /><rect x="1340" y="5220" width="200" height="40" style="fill:white;stroke:black;stroke-width:1" /><text x="1350" y="5230" font-size="10" style="fill:blue">lugar</text><path d="M1320 5240 C1340 5240 1320 5240 1340 5240" style="fill:transparent;stroke:black" /><text x="1350" y="5240" font-size="8" style="fill:black">longitud: 41.38739</text><text x="1350" y="5250" font-size="8" style="fill:black">latitud: 2.16856</text><text x="1350" y="5260" font-size="8" style="fill:black">altitud: 13</text><rect x="1560" y="5220" width="200" height="40" style="fill:white;stroke:black;stroke-width:1" /><text x="1570" y="5230" font-size="10" style="fill:blue">nombreLugar</text><path d="M1540 5240 C1560 5240 1540 5240 1560 5240" style="fill:transparent;stroke:black" /><rect x="1626" y="5220" width="137" height="40" style="fill:green;stroke:black;stroke-width:1" /><text x="1636" y="5230" font-size="8" style="fill:white"> Barcelona </text><rect x="1120" y="5370" width="200" height="40" style="fill:white;stroke:black;stroke-width:1" /><text x="1130" y="5380" font-size="10" style="fill:blue">videos</text><path d="M1100 5090 C1120 5090 1100 5390 1120 5390" style="fill:transparent;stroke:black" /><rect x="1120" y="5420" width="200" height="40" style="fill:white;stroke:black;stroke-width:1" /><text x="1130" y="5430" font-size="10" style="fill:blue">amigos</text><path d="M1100 5090 C1120 5090 1100 5440 1120 5440" style="fill:transparent;stroke:black" /><rect x="900" y="5520" width="200" height="40" style="fill:white;stroke:black;stroke-width:1" /><text x="910" y="5530" font-size="10" style="fill:blue">persona</text><path d="M880 4640 C900 4640 880 5540 900 5540" style="fill:transparent;stroke:black" /><text x="910" y="5540" font-size="8" style="fill:black">nombre: Alicia</text><text x="910" y="5550" font-size="8" style="fill:black">apellidos: Fernández Pushkina</text><text x="910" y="5560" font-size="8" style="fill:black">fotografia: multimedia/fotografia9.jpg</text><text x="910" y="5570" font-size="8" style="fill:black">fechaNacimiento: 2009-09-30</text><rect x="1120" y="5520" width="200" height="40" style="fill:white;stroke:black;stroke-width:1" /><text x="1130" y="5530" font-size="10" style="fill:blue">lugarNacimiento</text><path d="M1100 5540 C1120 5540 1100 5540 1120 5540" style="fill:transparent;stroke:black" /><rect x="1340" y="5520" width="200" height="40" style="fill:white;stroke:black;stroke-width:1" /><text x="1350" y="5530" font-size="10" style="fill:blue">lugar</text><path d="M1320 5540 C1340 5540 1320 5540 1340 5540" style="fill:transparent;stroke:black" /><text x="1350" y="5540" font-size="8" style="fill:black">longitud: 41.38739</text><text x="1350" y="5550" font-size="8" style="fill:black">latitud: 2.16856</text><text x="1350" y="5560" font-size="8" style="fill:black">altitud: 13</text><rect x="1560" y="5520" width="200" height="40" style="fill:white;stroke:black;stroke-width:1" /><text x="1570" y="5530" font-size="10" style="fill:blue">nombreLugar</text><path d="M1540 5540 C1560 5540 1540 5540 1560 5540" style="fill:transparent;stroke:black" /><rect x="1626" y="5520" width="137" height="40" style="fill:green;stroke:black;stroke-width:1" /><text x="1636" y="5530" font-size="8" style="fill:white"> Barcelona </text><rect x="1120" y="5670" width="200" height="40" style="fill:white;stroke:black;stroke-width:1" /><text x="1130" y="5680" font-size="10" style="fill:blue">lugarResidencia</text><path d="M1100 5540 C1120 5540 1100 5690 1120 5690" style="fill:transparent;stroke:black" /><rect x="1340" y="5670" width="200" height="40" style="fill:white;stroke:black;stroke-width:1" /><text x="1350" y="5680" font-size="10" style="fill:blue">lugar</text><path d="M1320 5690 C1340 5690 1320 5690 1340 5690" style="fill:transparent;stroke:black" /><text x="1350" y="5690" font-size="8" style="fill:black">longitud: 43.36225</text><text x="1350" y="5700" font-size="8" style="fill:black">latitud: -5.84854</text><text x="1350" y="5710" font-size="8" style="fill:black">altitud: 13</text><rect x="1560" y="5670" width="200" height="40" style="fill:white;stroke:black;stroke-width:1" /><text x="1570" y="5680" font-size="10" style="fill:blue">nombreLugar</text><path d="M1540 5690 C1560 5690 1540 5690 1560 5690" style="fill:transparent;stroke:black" /><rect x="1626" y="5670" width="137" height="40" style="fill:green;stroke:black;stroke-width:1" /><text x="1636" y="5680" font-size="8" style="fill:white"> Oviedo </text><rect x="1120" y="5820" width="200" height="40" style="fill:white;stroke:black;stroke-width:1" /><text x="1130" y="5830" font-size="10" style="fill:blue">videos</text><path d="M1100 5540 C1120 5540 1100 5840 1120 5840" style="fill:transparent;stroke:black" /><rect x="1120" y="5870" width="200" height="40" style="fill:white;stroke:black;stroke-width:1" /><text x="1130" y="5880" font-size="10" style="fill:blue">amigos</text><path d="M1100 5540 C1120 5540 1100 5890 1120 5890" style="fill:transparent;stroke:black" /></svg>